# xmcd
#
# Track frame offsets:
#	150
#	15562
#	29682
#	41277
#	54635
#	64592
#	73687
#	87052
#	99432
#	109935
#	125972
#	137365
#	148787
#	157965
#	171637
#	181602
#	193852
#	207970
#	219552
#	235182
#	247955
#	262240
#
# Disc length: 3621 seconds
#
# Revision: 0
# Processed by: cddbd v1.5.2PL0 Copyright (c) Steve Scherf et al.
# Submitted via: EasyCDDAExtractor 4.5.0.2
#
DISCID=430e2316
DTITLE=Tom T. Hall - 100 Children and I Witness Life
DYEAR=1900
DGENRE=Country
TTITLE0=Salute To A Switchblade
TTITLE1=Thank You, Connersville, Indiana
TTITLE2=Do It To Someone You Love
TTITLE3=The Ballad Of Billy Crump
TTITLE4=All You Want When You Please
TTITLE5=Chattanooga Dog
TTITLE6=Girls In Saigon City
TTITLE7=Hang Them All
TTITLE8=Coming To The Party
TTITLE9=America The Ugly
TTITLE10=That'll Be Alright With Me
TTITLE11=One Hundred Children
TTITLE12=I Can't Dance
TTITLE13=I Want To See The Parade
TTITLE14=Sing, A Little Baby To Sleep
TTITLE15=Mama Bake Me A Pie ( Daddy Kill A Chicken)
TTITLE16=Ode To Half A Pound Of Ground Round
TTITLE17=Pinto The Wonder Horse Is Dead
TTITLE18=I Hope It Rains At My Funeral
TTITLE19=I Took A Memory To Lunch
TTITLE20=The Hitch-hiker
TTITLE21=Old Enough To Want You
EXTD=
EXTT0=
EXTT1=
EXTT2=
EXTT3=
EXTT4=
EXTT5=
EXTT6=
EXTT7=
EXTT8=
EXTT9=
EXTT10=
EXTT11=
EXTT12=
EXTT13=
EXTT14=
EXTT15=
EXTT16=
EXTT17=
EXTT18=
EXTT19=
EXTT20=
EXTT21=
PLAYORDER=
